<svg height="512" viewBox="0 0 58 58" width="512" xmlns="http://www.w3.org/2000/svg"><g id="Page-1" fill="none" fill-rule="evenodd"><g id="030---oscilloscope" fill-rule="nonzero"><circle id="Oval" cx="29" cy="29" fill="#7f8c8d" r="29"/><circle id="Oval" cx="29" cy="29" fill="#393f4a" r="25"/><path id="Shape" d="m18.7 11.7c-.4547918.0007821-.8528333-.3054183-.9687138-.7452-.1158804-.4397816.0795889-.9023694.4757138-1.1258 3.294246-1.85614256 7.0118204-2.83057209 10.793-2.829.5522847.00000002 1 .44771526 1 1s-.4477153.99999998-1 1c-3.4355748-.00010829-6.8130758.88611545-9.806 2.573-.1507825.0846673-.3210786.1284478-.494.127z" fill="#fff"/><path id="Shape" d="m29 51c-.5522847 0-1-.4477153-1-1s.4477153-1 1-1c3.4355748.0001083 6.8130758-.8861155 9.806-2.573.4798597-.2631199 1.0820881-.0916384 1.3513641.3847939.2692759.4764324.105562 1.0808187-.3673641 1.3562061-3.2930766 1.8566898-7.0095701 2.8321401-10.79 2.832z" fill="#fff"/><g fill="#95a5a5"><circle id="Oval" cx="29" cy="2" r="2"/><circle id="Oval" cx="29" cy="56" r="2"/><circle id="Oval" cx="42.5" cy="5.617" r="2"/><circle id="Oval" cx="15.5" cy="52.383" r="2"/><circle id="Oval" cx="52.383" cy="15.5" r="2"/><circle id="Oval" cx="5.617" cy="42.5" r="2"/><circle id="Oval" cx="56" cy="29" r="2"/><circle id="Oval" cx="2" cy="29" r="2"/><circle id="Oval" cx="52.383" cy="42.5" r="2"/><circle id="Oval" cx="5.617" cy="15.5" r="2"/><circle id="Oval" cx="42.5" cy="52.383" r="2"/><circle id="Oval" cx="15.5" cy="5.617" r="2"/></g><path id="Shape" d="m35.063 45.2h-.02c-.9965931.0065698-1.8402833-.7339693-1.963-1.723l-4.08-29.241-4.08 29.242c-.1231818.9886335-.9667441 1.7286305-1.963 1.722h-.019c-.9892364.0148394-1.8350787-.7084543-1.974-1.688l-4.13-26.156-4.857 21.861c-.1198458.5395822-.6544178.8798458-1.194.76s-.87984579-.6544178-.76-1.194l4.858-21.858c.2070579-.9392393 1.0533313-1.5980911 2.0146673-1.5684852s1.7654632.7392846 1.9143327 1.6894852l4.128 26.154 4.082-29.24c.1404428-.9856166.9844276-1.7178653 1.98-1.7178653s1.8395572.7322487 1.98 1.7178653l4.081 29.24 4.13-26.156c.1499818-.9489999.9535783-1.6572606 1.9139014-1.6868428.960323-.0295823 1.8059897.6278737 2.0140986 1.5658428l4.858 21.858c.1198458.5395822-.2204178 1.0741542-.76 1.194s-1.0741542-.2204178-1.194-.76l-4.857-21.857-4.13 26.155c-.1389149.978993-.9843118 1.7018438-1.973 1.687z" fill="#65ddb9"/></g></g></svg>